<svg xmlns="http://www.w3.org/2000/svg" width="51" height="51" viewBox="0 0 51 51"><defs><mask id="1q4cb" width="2" height="2" x="-1" y="-1"><path fill="#fff" d="M5 2h41v41H5z"/><path d="M5 22.5C5 12.25 15.25 2 25.5 2S46 12.25 46 22.5 35.75 43 25.5 43 5 32.75 5 22.5z"/></mask><filter id="1q4ca" width="73" height="76" x="-11" y="-14" filterUnits="userSpaceOnUse"><feOffset dy="3" in="SourceGraphic" result="FeOffset1025Out"/><feGaussianBlur in="FeOffset1025Out" result="FeGaussianBlur1026Out" stdDeviation="2.4 2.4"/></filter></defs><g><g><g><g filter="url(#1q4ca)"><path fill="none" d="M5 22.5C5 12.25 15.25 2 25.5 2S46 12.25 46 22.5 35.75 43 25.5 43 5 32.75 5 22.5z" mask="url(&quot;#1q4cb&quot;)"/><path fill-opacity=".1" d="M5 22.5C5 12.25 15.25 2 25.5 2S46 12.25 46 22.5 35.75 43 25.5 43 5 32.75 5 22.5z"/></g><path fill="#c58f39" d="M5 22.5C5 12.25 15.25 2 25.5 2S46 12.25 46 22.5 35.75 43 25.5 43 5 32.75 5 22.5z"/></g><g><path fill="#eeb355" d="M5 20C5 10 15 0 25 0h1c10 0 20 10 20 20S36 40 26 40h-1C15 40 5 30 5 20z"/></g><g><path fill="#fff" d="M25.688 19.5a2.596 2.596 0 0 1-2.591-2.592 2.596 2.596 0 0 1 2.591-2.593 2.596 2.596 0 0 1 2.592 2.593 2.596 2.596 0 0 1-2.592 2.593zm4.955-7.55a7.052 7.052 0 0 0-5.02-2.08c-1.897 0-3.68.739-5.02 2.08-2.482 2.483-2.79 7.154-.669 9.984l5.689 8.22 5.68-8.208c2.13-2.842 1.822-7.513-.66-9.996z"/></g></g></g></svg>