<svg xmlns="http://www.w3.org/2000/svg" width="130.896" height="34.715" viewBox="0 0 130.896 34.715"><g transform="translate(-165.792 -25.888)"><path d="M7.272.312a7.37,7.37,0,0,1-4.116-1.1A5.8,5.8,0,0,1,.792-3.816L3.168-5.208A4.023,4.023,0,0,0,7.344-2.376a3.75,3.75,0,0,0,2.34-.612,1.934,1.934,0,0,0,.78-1.6,1.754,1.754,0,0,0-.84-1.572A13.047,13.047,0,0,0,6.648-7.344,20.188,20.188,0,0,1,4.7-8.016a9.03,9.03,0,0,1-1.572-.876A3.577,3.577,0,0,1,1.9-10.3a4.457,4.457,0,0,1-.408-1.968A4.35,4.35,0,0,1,3.072-15.8a5.8,5.8,0,0,1,3.816-1.308,6.322,6.322,0,0,1,3.528.984,6.432,6.432,0,0,1,2.328,2.712l-2.328,1.344a3.62,3.62,0,0,0-3.528-2.352,3.029,3.029,0,0,0-1.92.564,1.834,1.834,0,0,0-.72,1.524A1.736,1.736,0,0,0,4.98-10.86,9.743,9.743,0,0,0,7.632-9.72q.96.312,1.4.468t1.248.492a4.947,4.947,0,0,1,1.212.672,9.207,9.207,0,0,1,.876.84,2.872,2.872,0,0,1,.66,1.152,5.152,5.152,0,0,1,.192,1.464A4.4,4.4,0,0,1,11.58-1.02,6.631,6.631,0,0,1,7.272.312ZM32.76-16.8V0H30V-11.976L24.888-3.528h-.336L19.44-12V0H16.68V-16.8h2.976L24.72-8.4l5.088-8.4ZM48.264,0,47.088-3.384H39.936L38.76,0h-3l6.1-16.8h3.312L51.24,0ZM40.848-5.976h5.328L43.512-13.56ZM63.816,0,60.264-6.12H57V0H54.24V-16.8h6.72a5.21,5.21,0,0,1,3.828,1.572A5.21,5.21,0,0,1,66.36-11.4a5.045,5.045,0,0,1-.924,2.94,5.284,5.284,0,0,1-2.412,1.932L66.84,0ZM57-14.208v5.616h3.96a2.474,2.474,0,0,0,1.872-.816A2.8,2.8,0,0,0,63.6-11.4a2.8,2.8,0,0,0-.768-1.992,2.474,2.474,0,0,0-1.872-.816ZM80.688-16.8v2.64H75.96V0H73.2V-14.16H68.448V-16.8Zm6,14.16h6.84V0h-9.6V-16.8h2.76ZM96.768-16.8h2.76V0h-2.76Zm17.4,0h2.76V0h-2.16l-7.92-11.4V0h-2.76V-16.8h2.16l7.92,11.4Zm10.08,14.16h7.44V0h-10.2V-16.8h10.08v2.64h-7.32v4.368h6.72v2.616h-6.72Z" transform="translate(165 43)" fill="#fff"/><g transform="translate(-0.545)"><rect width="100" height="20" transform="translate(181.545 40.63) rotate(-3)" fill="#eeb355"/><path d="M2.96-1.76H7.92V0H1.12V-11.2H7.84v1.76H2.96v2.912H7.44v1.744H2.96ZM16.64-11.2h1.84V0H17.04L11.76-7.6V0H9.92V-11.2h1.44l5.28,7.6Zm6.24,9.44h4.96V0h-6.8V-11.2h6.72v1.76H22.88v2.912h4.48v1.744H22.88ZM36.224,0,33.856-4.08H31.68V0H29.84V-11.2h4.48a3.473,3.473,0,0,1,2.552,1.048A3.473,3.473,0,0,1,37.92-7.6,3.364,3.364,0,0,1,37.3-5.64,3.523,3.523,0,0,1,35.7-4.352L38.24,0ZM31.68-9.472v3.744h2.64a1.649,1.649,0,0,0,1.248-.544A1.866,1.866,0,0,0,36.08-7.6a1.866,1.866,0,0,0-.512-1.328,1.649,1.649,0,0,0-1.248-.544Zm19.1,3.68v.768a5,5,0,0,1-1.52,3.768A5.48,5.48,0,0,1,45.3.208a5.814,5.814,0,0,1-4.28-1.68A5.6,5.6,0,0,1,39.328-5.6a5.605,5.605,0,0,1,1.688-4.12A5.682,5.682,0,0,1,45.2-11.408a5.8,5.8,0,0,1,2.864.72A5.256,5.256,0,0,1,50.08-8.752L48.5-7.84a3.325,3.325,0,0,0-1.328-1.288A3.989,3.989,0,0,0,45.2-9.616a3.894,3.894,0,0,0-2.9,1.152,3.936,3.936,0,0,0-1.136,2.88A3.868,3.868,0,0,0,42.312-2.72a4.072,4.072,0,0,0,3,1.136,3.958,3.958,0,0,0,2.424-.7,3.062,3.062,0,0,0,1.192-1.864H45.184V-5.792ZM60.592-11.2l-3.9,6.752V0h-1.84V-4.448l-3.9-6.752h2.1l2.736,4.96L58.5-11.2Z" transform="translate(202.409 55.494) rotate(-3)" fill="#fff"/></g></g></svg>