<svg xmlns="http://www.w3.org/2000/svg" width="51" height="51" viewBox="0 0 51 51"><defs><mask id="v5fjb" width="2" height="2" x="-1" y="-1"><path fill="#fff" d="M5 2h41v41H5z"/><path d="M5 22.5C5 12.25 15.25 2 25.5 2S46 12.25 46 22.5 35.75 43 25.5 43 5 32.75 5 22.5z"/></mask><filter id="v5fja" width="73" height="76" x="-11" y="-14" filterUnits="userSpaceOnUse"><feOffset dy="3" in="SourceGraphic" result="FeOffset1057Out"/><feGaussianBlur in="FeOffset1057Out" result="FeGaussianBlur1058Out" stdDeviation="2.4 2.4"/></filter></defs><g><g><g><g filter="url(#v5fja)"><path fill="none" d="M5 22.5C5 12.25 15.25 2 25.5 2S46 12.25 46 22.5 35.75 43 25.5 43 5 32.75 5 22.5z" mask="url(&quot;#v5fjb&quot;)"/><path fill-opacity=".1" d="M5 22.5C5 12.25 15.25 2 25.5 2S46 12.25 46 22.5 35.75 43 25.5 43 5 32.75 5 22.5z"/></g><path fill="#c58f39" d="M5 22.5C5 12.25 15.25 2 25.5 2S46 12.25 46 22.5 35.75 43 25.5 43 5 32.75 5 22.5z"/></g><g><path fill="#eeb355" d="M5 20C5 10 15 0 25 0h1c10 0 20 10 20 20S36 40 26 40h-1C15 40 5 30 5 20z"/></g><g><g><path fill="#fff" d="M35.04 29c.494 0 .923-.162 1.287-.483l-6.235-6.192-.432.308c-.467.342-.845.608-1.136.8a7.02 7.02 0 0 1-1.16.585c-.484.199-.934.298-1.352.298h-.024c-.418 0-.868-.099-1.352-.298-.483-.2-.87-.395-1.16-.586-.29-.19-.67-.457-1.136-.799l-.43-.31-6.238 6.194c.365.32.794.483 1.288.483z"/></g><g><path fill="#fff" d="M16.232 18.426A6.467 6.467 0 0 1 15 17.365v9.42l5.458-5.457a421.776 421.776 0 0 0-4.226-2.902z"/></g><g><path fill="#fff" d="M35.78 18.426a359.274 359.274 0 0 0-4.235 2.904L37 26.786v-9.421c-.35.39-.756.744-1.22 1.061z"/></g><g><path fill="#fff" d="M35.036 12H16.964c-.63 0-1.115.211-1.454.634-.34.423-.51.951-.51 1.586 0 .512.225 1.067.675 1.664.45.598.93 1.068 1.437 1.409.278.195 1.117.775 2.517 1.738a809.376 809.376 0 0 1 3.216 2.226c.04.027.101.071.183.13l.339.242c.266.191.487.345.663.464.176.118.388.25.638.396.25.146.485.256.706.33.221.072.426.109.614.109h.025c.188 0 .392-.037.613-.11.221-.073.456-.183.706-.33a13.1 13.1 0 0 0 .639-.395c.176-.119.397-.273.663-.464a82.297 82.297 0 0 1 .522-.372l1.242-.858 4.503-3.106a5.82 5.82 0 0 0 1.498-1.5c.4-.585.601-1.2.601-1.842 0-.536-.195-.995-.583-1.378A1.905 1.905 0 0 0 35.036 12z"/></g></g></g></g></svg>