<svg xmlns="http://www.w3.org/2000/svg" width="51" height="51" viewBox="0 0 51 51"><defs><mask id="q335b" width="2" height="2" x="-1" y="-1"><path fill="#fff" d="M5 2h41v41H5z"/><path d="M5 22.5C5 12.25 15.25 2 25.5 2S46 12.25 46 22.5 35.75 43 25.5 43 5 32.75 5 22.5z"/></mask><filter id="q335a" width="73" height="76" x="-11" y="-14" filterUnits="userSpaceOnUse"><feOffset dy="3" in="SourceGraphic" result="FeOffset1106Out"/><feGaussianBlur in="FeOffset1106Out" result="FeGaussianBlur1107Out" stdDeviation="2.4 2.4"/></filter></defs><g><g><g><g filter="url(#q335a)"><path fill="none" d="M5 22.5C5 12.25 15.25 2 25.5 2S46 12.25 46 22.5 35.75 43 25.5 43 5 32.75 5 22.5z" mask="url(&quot;#q335b&quot;)"/><path fill-opacity=".1" d="M5 22.5C5 12.25 15.25 2 25.5 2S46 12.25 46 22.5 35.75 43 25.5 43 5 32.75 5 22.5z"/></g><path fill="#c58f39" d="M5 22.5C5 12.25 15.25 2 25.5 2S46 12.25 46 22.5 35.75 43 25.5 43 5 32.75 5 22.5z"/></g><g><path fill="#eeb355" d="M5 20C5 10 15 0 25 0h1c10 0 20 10 20 20S36 40 26 40h-1C15 40 5 30 5 20z"/></g><g><path fill="#fff" d="M20.756 11.068h9.958v17.703h-9.958zm3.32-1.415c0-.137.065-.244.147-.244h3.025c.08 0 .147.11.147.244v.066c0 .137-.066.244-.147.244h-3.025c-.08 0-.147-.11-.147-.244zm1.66 22.105a1.107 1.107 0 1 1 0-2.213 1.107 1.107 0 0 1 0 2.213zm3.872.923s2.213 0 2.213-2.216V10.519c0-2.217-2.213-2.217-2.213-2.217h-7.745s-2.213 0-2.213 2.217v19.946c0 2.216 2.213 2.216 2.213 2.216z"/></g></g></g></svg>